<svg xmlns="http://www.w3.org/2000/svg" viewBox="34.72 0 777.59 143.41"><defs><style>.t{fill:#ff8300;}</style></defs><path class="t" d="M318.34,377.63V273.52l22-.06v24.07a80.74,80.74,0,0,1,56.3-24.2c37,0,56.8,21.57,67.17,36.75l-28.3,0c-14.71-13.59-27.57-14.29-38.87-14.29-21.55,0-36.63,10.24-45.37,21.89S339.64,342.55,339.66,348v29.67Z" transform="translate(-189.12 -234.22)"/><path class="t" d="M761,377.69l-77.47-48.06h-23v48H638.63V234.22h21.84v73.56h60c15.34,0,35.72-6.09,46-16.33,6.66-7.06,6.88-12.89,6.88-16.36h20.79c0,4.68.06,15.64-6.94,24.63-9.37,12-18.93,17-30.36,21.37-13.82,5.33-29.52,8.19-33.68,8.19l74.09,48.41Z" transform="translate(-189.12 -234.22)"/><path class="t" d="M304.18,377.62c-56.85,0-80.29-31.38-80.34-50.77V234.47H246v38.86h46v22.2H246v26.56c0,5.2.54,7.58,1,8.87a26.28,26.28,0,0,0,6.48,9.56c7.28,7.09,21.79,14.62,50.73,15.6l1.11,0v21.46Z" transform="translate(-189.12 -234.22)"/><path class="t" d="M547.07,273.38c52.82,0,77.94,31.73,78,51.56v52.65H468.37a41,41,0,0,1-.42-5.5,49,49,0,0,1,12.28-32.43C491,327.55,510.78,317,546.8,315.85c37.16,0,51.18,10.8,56.33,13.33-.32-12.52-7.83-20.39-17.49-25.58-9.84-5.27-26.73-9.06-38.57-9.06-42.4,0-52.61,15.54-52.61,15.54H468.15c4.2-9.11,16.5-24.69,44.76-32.18,16.42-4.4,34.16-4.52,34.16-4.52m55.46,82.55c-15.86-17.55-39.65-19.3-55.67-19.3-7.58,0-35.07,1.09-51.52,19.3Z" transform="translate(-189.12 -234.22)"/><path class="t" d="M888.65,273.38c52.82,0,77.94,31.73,78,51.56v52.65H810a41,41,0,0,1-.42-5.5,49,49,0,0,1,12.28-32.43c10.73-12.11,30.54-22.65,66.57-23.81,37.16,0,51.18,10.8,56.33,13.33-.32-12.52-7.84-20.39-17.49-25.58-9.83-5.27-26.73-9.06-38.58-9.06-42.39,0-52.6,15.54-52.6,15.54H809.73c4.2-9.11,16.5-24.69,44.76-32.18,16.42-4.4,34.16-4.52,34.16-4.52m55.46,82.55c-15.86-17.55-39.66-19.3-55.67-19.3-7.59,0-35.07,1.09-51.52,19.3Z" transform="translate(-189.12 -234.22)"/></svg>
