<svg id="Layer_1" data-name="Layer 1" xmlns="http://www.w3.org/2000/svg" viewBox="0 0 812.31 374.58"><defs><style>.cls-1{fill:#E8ECF4;}.cls-2{fill:#ff8300;}</style></defs><path class="cls-1" d="M513,507.37H490.66l-25.61,67.47c-1.39-20.59-22.37-24.93-29.33-26.68-24.84-6.38-29.56-7.35-29.56-15,0-8.33,8-11.24,15-11.24,10.41,0,18.87,3,19.57,15h21.08c0-22.89-19-31.91-39.68-31.91-15.7,0-32.36,7.48-36.22,23-4.32-16.35-20.82-23-38.56-23-17.9,0-37.05,9.71-37.05,30,0,18.59,14.85,24.28,29.56,28.16s29.41,5.69,29.41,16.38c0,10.13-11.66,12.35-19.28,12.35-11.65,0-21.92-5.13-21.92-18.32H307.56l-24.75-66.18H260.47l-37.6,99.06h22.06l7.78-22.06h37l7.49,22.06h22.61l-3.26-8.72c8,7.55,20.05,11.09,32.55,11.09,18.86,0,31.52-6.7,37.41-17,7.3,11.61,22,17,37.36,17,14.46,0,25.28-3.93,32.19-10.38l-3,8h22.06l7.76-22.06h37l7.49,22.06H550Zm-254.6,60.77,12.9-36.35h.28l12.49,36.35Zm166.36,23.73c-11.66,0-21.92-5.13-21.92-18.32H390.14c-2.16-19.48-22.39-23.68-29.21-25.39-24.84-6.38-29.56-7.35-29.56-15,0-8.33,8.05-11.24,15-11.24,10.4,0,18.87,3,19.56,15h19.21c1,17.05,15.32,22.48,29.5,26.22,14.56,3.89,29.4,5.69,29.4,16.38,0,10.13-11.65,12.35-19.28,12.35m63.82-23.73,12.91-36.35h.28l12.48,36.35Z" transform="translate(-189.12 -234.22)"/><path class="cls-1" d="M723.34,552.6c8.6-4.16,13.46-11,13.46-20.67,0-18.45-12.77-24.56-31.64-24.56H658.54v87.57l-32.75-87.57H603.46l-37.6,99.06h22.06l7.77-22h37l7.5,22h66.32c17.89,0,35-8.6,35-28.72,0-12.35-6.11-21.64-18.17-25.11m-122,15.54,12.9-36.35h.28L627,568.14Zm78.94-43.84h20.4c7.77,0,15,1.94,15,11.38,0,8.32-5.69,11.79-13.32,11.79H680.32Zm23.31,65.21H680.32V562.32h23.73c9.29,0,15.68,4,15.68,14.14s-7.49,13-16.1,13" transform="translate(-189.12 -234.22)"/><path class="cls-1" d="M841.69,505C811,505,793,527.9,793,557.32c0,11.58,3,22.23,8.53,30.8H765.38V507.37H743.6v99.07h63.82v-11c8.27,8.31,19.88,13.35,34.27,13.35,30.66,0,48.7-22.89,48.7-51.47,0-29.42-18-52.31-48.7-52.31m0,85.47c-19.57,0-26.92-16.65-26.92-33.16,0-17.35,7.35-34,26.92-34s26.92,16.65,26.92,34c0,16.51-7.36,33.16-26.92,33.16" transform="translate(-189.12 -234.22)"/><polygon class="cls-1" points="754.97 273.15 731.93 312.27 708.76 273.15 684.21 273.15 720.7 333.64 720.7 372.21 742.48 372.21 742.48 334.19 779.24 273.15 754.97 273.15"/><path class="cls-2" d="M318.34,377.63V273.52l22-.06v24.07a80.74,80.74,0,0,1,56.3-24.2c37,0,56.8,21.57,67.17,36.75l-28.3,0c-14.71-13.59-27.57-14.29-38.87-14.29-21.55,0-36.63,10.24-45.37,21.89S339.64,342.55,339.66,348v29.67Z" transform="translate(-189.12 -234.22)"/><path class="cls-2" d="M761,377.69l-77.47-48.06h-23v48H638.63V234.22h21.84v73.56h60c15.34,0,35.72-6.09,46-16.33,6.66-7.06,6.88-12.89,6.88-16.36h20.79c0,4.68.06,15.64-6.94,24.63-9.37,12-18.93,17-30.36,21.37-13.82,5.33-29.52,8.19-33.68,8.19l74.09,48.41Z" transform="translate(-189.12 -234.22)"/><path class="cls-2" d="M304.18,377.62c-56.85,0-80.29-31.38-80.34-50.77V234.47H246v38.86h46v22.2H246v26.56c0,5.2.54,7.58,1,8.87a26.28,26.28,0,0,0,6.48,9.56c7.28,7.09,21.79,14.62,50.73,15.6l1.11,0v21.46Z" transform="translate(-189.12 -234.22)"/><path class="cls-2" d="M547.07,273.38c52.82,0,77.94,31.73,78,51.56v52.65H468.37a41,41,0,0,1-.42-5.5,49,49,0,0,1,12.28-32.43C491,327.55,510.78,317,546.8,315.85c37.16,0,51.18,10.8,56.33,13.33-.32-12.52-7.83-20.39-17.49-25.58-9.84-5.27-26.73-9.06-38.57-9.06-42.4,0-52.61,15.54-52.61,15.54H468.15c4.2-9.11,16.5-24.69,44.76-32.18,16.42-4.4,34.16-4.52,34.16-4.52m55.46,82.55c-15.86-17.55-39.65-19.3-55.67-19.3-7.58,0-35.07,1.09-51.52,19.3Z" transform="translate(-189.12 -234.22)"/><path class="cls-2" d="M888.65,273.38c52.82,0,77.94,31.73,78,51.56v52.65H810a41,41,0,0,1-.42-5.5,49,49,0,0,1,12.28-32.43c10.73-12.11,30.54-22.65,66.57-23.81,37.16,0,51.18,10.8,56.33,13.33-.32-12.52-7.84-20.39-17.49-25.58-9.83-5.27-26.73-9.06-38.58-9.06-42.39,0-52.6,15.54-52.6,15.54H809.73c4.2-9.11,16.5-24.69,44.76-32.18,16.42-4.4,34.16-4.52,34.16-4.52m55.46,82.55c-15.86-17.55-39.66-19.3-55.67-19.3-7.59,0-35.07,1.09-51.52,19.3Z" transform="translate(-189.12 -234.22)"/><polygon class="cls-1" points="0 177.04 0 211.05 805.44 211.05 805.44 238.82 812.31 238.82 812.31 204.18 6.87 204.18 6.87 177.04 0 177.04"/></svg>
